<?xml version="1.0" encoding="UTF-8" standalone="no"?>
<svg
   xmlns:dc="http://purl.org/dc/elements/1.1/"
   xmlns:cc="http://creativecommons.org/ns#"
   xmlns:rdf="http://www.w3.org/1999/02/22-rdf-syntax-ns#"
   xmlns:svg="http://www.w3.org/2000/svg"
   xmlns="http://www.w3.org/2000/svg"
   xmlns:sodipodi="http://sodipodi.sourceforge.net/DTD/sodipodi-0.dtd"
   xmlns:inkscape="http://www.inkscape.org/namespaces/inkscape"
   version="1.1"
   width="1024"
   height="1024"
   viewBox="0 0 1024 1024"
   id="svg838"
   sodipodi:docname="inkscape.svg"
   inkscape:version="1.0.2 (e86c8708, 2021-01-15)">
  <metadata
     id="metadata844">
    <rdf:RDF>
      <cc:Work
         rdf:about="">
        <dc:format>image/svg+xml</dc:format>
        <dc:type
           rdf:resource="http://purl.org/dc/dcmitype/StillImage" />
      </cc:Work>
    </rdf:RDF>
  </metadata>
  <defs
     id="defs842" />
  <sodipodi:namedview
     pagecolor="#ffffff"
     bordercolor="#666666"
     borderopacity="1"
     objecttolerance="10"
     gridtolerance="10"
     guidetolerance="10"
     inkscape:pageopacity="0"
     inkscape:pageshadow="2"
     inkscape:window-width="2560"
     inkscape:window-height="1313"
     id="namedview840"
     showgrid="false"
     inkscape:zoom="0.65234375"
     inkscape:cx="512"
     inkscape:cy="512"
     inkscape:window-x="0"
     inkscape:window-y="25"
     inkscape:window-maximized="1"
     inkscape:current-layer="svg838" />
  <title
     id="title833" />
  <g
     id="icomoon-ignore" />
  <path
     d="M506.539 8.149c-31.787-0.469-62.464 11.861-85.035 34.304l-376.533 385.621c-142.635 142.507 92.331 130.603 177.237 184.533 39.339 25.685-126.080 58.496-92.331 92.331 32.896 33.835 198.4 64.896 231.339 97.835 32.896 33.749-66.731 69.419-33.835 103.168 32 33.835 108.757 1.835 122.453 78.592 10.027 56.661 140.8 28.416 199.339-20.096 36.437-31.104-63.104-31.104-30.208-64.896 82.304-83.157 155.392-37.333 185.557-114.176 16.512-41.088-124.288-70.4-86.784-96.896 89.643-63.019 418.645-95.019 266.88-246.699l-390.272-399.317c-23.893-22.229-55.253-34.432-87.808-34.304zM509.739 44.8c22.571 0.128 45.227 8.576 61.611 24.917l148.992 151.765c13.781 13.696 13.781 42.069 5.504 50.261l-73.984-60.245-14.635 88.619-61.227-32.939-99.669 63.061-32.896-132.48-52.992 115.115-132.565-0.939c-25.6 0-21.931-26.496 4.565-52.992 52.096-57.6 153.6-155.307 185.6-189.141 16.427-16.896 39.040-25.131 61.653-24.917zM925.952 739.243c-31.573 1.067-63.829 16.853-72.064 46.080 0 19.157 148.992 30.165 140.843-4.565-6.016-29.269-37.12-42.752-68.736-41.6zM271.189 822.229c-43.008 2.517-89.088 33.749-52.565 64.512 33.749 29.269 84.992-6.4 101.419-47.488-10.24-13.483-29.269-18.176-48.768-16.981zM835.627 825.515c-42.069 38.4 7.253 78.592 48.384 52.096 11.008-7.381-0.896-42.88-48.384-52.096z"
     id="path836"
     style="stroke-width:1.0015748;stroke-miterlimit:4;stroke-dasharray:none;fill:#2e64ba;fill-opacity:1" />
</svg>
