<?xml version="1.0" standalone="no"?>
<!DOCTYPE svg PUBLIC "-//W3C//DTD SVG 20010904//EN"
 "http://www.w3.org/TR/2001/REC-SVG-20010904/DTD/svg10.dtd">
<svg version="1.0" xmlns="http://www.w3.org/2000/svg"
 width="110.000000pt" height="64.000000pt" viewBox="0 0 110.000000 64.000000"
 preserveAspectRatio="xMidYMid meet">
<metadata>
Created by potrace 1.16, written by Peter Selinger 2001-2019
</metadata>
<g transform="translate(0.000000,64.000000) scale(0.100000,-0.100000)"
fill="#000000" stroke="none">
<path d="M220 631 c-78 -24 -159 -97 -196 -176 -34 -71 -34 -189 0 -262 31
-67 94 -129 163 -160 60 -28 133 -42 133 -25 0 5 -19 13 -43 16 -129 20 -247
160 -247 295 0 112 57 208 154 259 44 23 63 27 136 27 64 0 94 -5 120 -19 99
-53 165 -135 176 -218 7 -53 24 -66 24 -18 0 49 -38 135 -82 185 -62 71 -142
105 -238 104 -41 0 -86 -4 -100 -8z"/>
<path d="M275 483 c-70 -17 -132 -113 -120 -184 8 -48 56 -106 102 -125 60
-26 63 -22 63 66 l0 80 81 0 82 0 -6 35 c-15 90 -110 150 -202 128z"/>
<path d="M531 157 c-15 -15 -14 -54 2 -64 6 -4 28 -13 47 -18 40 -12 52 -40
20 -48 -31 -8 -60 3 -60 24 0 11 -7 19 -15 19 -21 0 -19 -33 3 -53 25 -23 85
-22 105 1 34 38 10 72 -61 87 -23 5 -32 12 -30 23 5 26 54 28 70 3 16 -27 32
-27 25 -1 -4 16 0 20 22 20 l26 0 -3 -75 c-4 -64 -2 -75 12 -75 13 0 16 13 16
75 l0 75 30 0 c17 0 30 4 30 10 0 14 -225 11 -239 -3z"/>
<path d="M860 65 c0 -50 3 -65 14 -65 11 0 16 14 18 47 2 36 7 49 21 51 14 3
17 -4 17 -47 0 -38 4 -51 14 -51 11 0 16 14 18 47 2 35 8 49 19 51 13 2 15 -3
12 -22 -8 -41 22 -78 59 -74 17 2 36 11 42 20 15 24 0 34 -20 14 -9 -10 -23
-15 -31 -12 -8 3 -17 6 -19 6 -2 0 -4 7 -4 15 0 11 11 15 41 15 38 0 40 2 37
27 -4 34 -48 54 -78 35 -14 -9 -20 -9 -23 1 -3 9 -9 9 -26 -1 -12 -7 -21 -8
-21 -2 0 14 -43 13 -58 -2 -9 -9 -12 -9 -12 0 0 7 -4 12 -10 12 -6 0 -10 -28
-10 -65z"/>
</g>
</svg>
