<?xml version="1.0" standalone="no"?>
<!DOCTYPE svg PUBLIC "-//W3C//DTD SVG 20010904//EN"
 "http://www.w3.org/TR/2001/REC-SVG-20010904/DTD/svg10.dtd">
<svg version="1.0" xmlns="http://www.w3.org/2000/svg"
 width="800.000000pt" height="232.000000pt" viewBox="0 0 800.000000 232.000000"
 preserveAspectRatio="xMidYMid meet">
<metadata>
Created by potrace 1.16, written by Peter Selinger 2001-2019
</metadata>
<g transform="translate(0.000000,232.000000) scale(0.100000,-0.100000)"
fill="#000000" stroke="none">
<path d="M6480 1570 l0 -730 390 0 390 0 0 220 0 220 55 0 55 0 0 -220 c0
-189 2 -220 15 -220 13 0 15 33 15 240 l0 240 115 0 115 0 0 -240 c0 -153 4
-240 10 -240 6 0 10 80 10 220 l0 220 60 0 60 0 0 -220 0 -220 95 0 95 0 0
730 0 730 -740 0 -740 0 0 -730z m1160 363 c0 -10 3 -28 6 -40 l6 -23 -136 0
c-148 0 -145 -1 -130 58 6 21 10 22 130 22 111 0 124 -2 124 -17z m60 -173 c0
-64 3 -80 15 -80 13 0 15 -23 15 -150 0 -93 4 -150 10 -150 6 0 10 -18 10 -40
l0 -40 -50 0 c-43 0 -50 3 -50 20 0 19 -7 20 -140 20 -133 0 -140 -1 -140 -20
0 -17 -7 -20 -45 -20 l-45 0 0 40 c0 22 5 40 10 40 6 0 10 57 10 150 0 127 2
150 15 150 12 0 15 16 15 80 l0 80 185 0 185 0 0 -80z"/>
<path d="M7461 1247 c-6 -8 -14 -28 -17 -45 -5 -25 -1 -36 19 -56 15 -14 33
-26 41 -26 72 0 108 76 60 125 -19 19 -88 20 -103 2z"/>
<path d="M3015 566 c-16 -8 -43 -28 -59 -45 -24 -25 -30 -42 -34 -88 -5 -79
19 -112 128 -177 68 -41 86 -56 88 -77 2 -14 -4 -31 -12 -38 -21 -18 -98 -16
-134 3 -17 9 -36 16 -41 16 -9 0 -51 -70 -51 -85 0 -3 21 -16 48 -28 65 -29
181 -30 236 -1 69 36 99 98 85 177 -9 50 -45 87 -136 139 -79 45 -95 68 -67
99 22 24 60 24 123 -1 l51 -20 6 24 c3 13 4 38 2 57 -3 29 -8 35 -43 45 -54
17 -153 16 -190 0z"/>
<path d="M4880 571 c-79 -24 -157 -100 -179 -173 -38 -126 1 -264 92 -325 85
-57 210 -66 304 -21 55 25 120 99 135 152 45 160 -28 320 -163 360 -55 17
-146 20 -189 7z m147 -110 c56 -26 83 -78 83 -161 0 -92 -42 -153 -115 -170
-112 -25 -207 91 -176 216 16 64 39 94 86 115 50 23 70 23 122 0z"/>
<path d="M7711 559 c-58 -30 -81 -69 -81 -141 0 -72 22 -100 131 -165 87 -51
108 -84 74 -110 -24 -17 -103 -16 -135 2 -14 8 -32 14 -41 15 -14 0 -49 -57
-49 -81 0 -6 21 -20 48 -32 69 -31 182 -29 242 4 52 29 80 77 80 139 0 58 -28
104 -85 138 -138 82 -136 81 -133 109 6 50 67 53 171 8 15 -6 17 -1 17 49 0
52 -2 57 -27 67 -16 6 -59 13 -98 16 -58 4 -77 1 -114 -18z"/>
<path d="M20 367 c0 -194 1 -206 23 -248 41 -78 158 -115 282 -89 48 10 68 20
101 54 25 24 46 58 53 81 6 23 11 120 11 223 l0 182 -60 0 -60 0 0 -152 c-1
-186 -9 -235 -45 -265 -40 -35 -105 -32 -147 6 l-33 29 -3 191 -3 191 -60 0
-59 0 0 -203z"/>
<path d="M620 300 l0 -270 60 0 60 0 0 176 0 177 136 -177 137 -176 58 0 59 0
0 270 0 270 -60 0 -60 0 -2 -165 -3 -164 -128 164 -128 165 -64 0 -65 0 0
-270z"/>
<path d="M1270 300 l0 -270 60 0 60 0 0 270 0 270 -60 0 -60 0 0 -270z"/>
<path d="M1439 548 c5 -13 54 -133 109 -268 l100 -245 51 0 52 0 110 250 c60
138 112 258 115 268 5 15 -2 17 -58 17 l-64 0 -74 -180 -74 -181 -34 88 c-18
48 -49 130 -68 181 l-36 92 -69 0 c-67 0 -68 0 -60 -22z"/>
<path d="M2030 300 l0 -270 165 0 165 0 0 50 0 50 -100 0 -100 0 0 65 0 65 85
0 85 0 0 50 0 50 -85 0 -85 0 0 55 0 55 83 0 84 0 11 39 c7 21 12 43 12 50 0
8 -47 11 -160 11 l-160 0 0 -270z"/>
<path d="M2460 300 l0 -270 65 0 65 0 0 105 c0 58 4 105 8 105 19 0 45 -31 95
-115 l54 -90 72 -3 c39 -2 71 -1 71 2 0 7 -106 181 -132 218 -18 27 -18 27 2
38 56 30 80 148 43 211 -31 53 -83 69 -221 69 l-122 0 0 -270z"/>
<path d="M3360 300 l0 -270 60 0 60 0 0 270 0 270 -60 0 -60 0 0 -270z"/>
<path d="M3540 520 l0 -50 80 0 80 0 0 -220 0 -220 60 0 60 0 0 220 0 220 75
0 74 0 7 35 c3 19 9 37 13 39 3 3 46 -64 94 -149 l87 -153 0 -106 0 -106 60 0
60 0 0 103 1 102 94 165 95 165 -56 3 c-31 2 -62 1 -69 -2 -7 -2 -37 -50 -66
-105 l-53 -100 -56 104 -55 105 -292 0 -293 0 0 -50z"/>
<path d="M5340 300 l0 -270 60 0 60 0 0 115 0 115 85 0 85 0 0 50 0 50 -85 0
-85 0 0 55 0 54 86 3 87 3 13 45 c8 25 14 46 14 48 0 1 -72 2 -160 2 l-160 0
0 -270z"/>
<path d="M5920 300 l0 -270 155 0 155 0 0 50 0 50 -95 0 -95 0 0 220 0 220
-60 0 -60 0 0 -270z"/>
<path d="M6290 300 l0 -270 160 0 160 0 0 50 0 50 -100 0 -100 0 0 65 0 65 85
0 85 0 0 50 0 50 -85 0 -85 0 0 55 0 55 84 0 84 0 16 47 c9 26 16 48 16 50 0
2 -72 3 -160 3 l-160 0 0 -270z"/>
<path d="M6690 300 l0 -270 160 0 160 0 0 50 0 50 -100 0 -100 0 0 65 0 65 90
0 90 0 0 50 0 50 -90 0 -90 0 0 55 0 55 85 0 c93 0 92 -1 111 75 l6 25 -161 0
-161 0 0 -270z"/>
<path d="M7100 300 l0 -270 108 0 c185 0 290 44 342 145 21 42 25 63 25 135 0
99 -21 148 -82 199 -57 47 -117 61 -265 61 l-128 0 0 -270z m256 151 c83 -38
116 -138 75 -223 -26 -54 -74 -83 -153 -93 l-58 -6 0 170 0 171 48 0 c26 0 65
-9 88 -19z"/>
</g>
</svg>
