<?xml version="1.0" standalone="no"?>
<!DOCTYPE svg PUBLIC "-//W3C//DTD SVG 20010904//EN"
 "http://www.w3.org/TR/2001/REC-SVG-20010904/DTD/svg10.dtd">
<svg version="1.0" xmlns="http://www.w3.org/2000/svg"
 width="687.000000pt" height="354.000000pt" viewBox="0 0 687.000000 354.000000"
 preserveAspectRatio="xMidYMid meet">
<metadata>
Created by potrace 1.16, written by Peter Selinger 2001-2019
</metadata>
<g transform="translate(0.000000,354.000000) scale(0.100000,-0.100000)"
fill="#000000" stroke="none">
<path d="M2013 3313 c-18 -6 -16 -64 1 -89 16 -22 61 -193 69 -261 4 -30 1
-43 -9 -47 -19 -7 -18 -26 2 -26 14 0 15 -7 10 -37 -3 -21 -6 -49 -6 -62 l0
-23 -20 23 c-10 13 -19 20 -20 16 0 -4 9 -17 20 -29 21 -23 26 -43 11 -52 -11
-7 -28 13 -33 39 -2 12 -22 -34 -47 -110 -24 -71 -46 -135 -48 -141 -2 -6 5
-14 16 -17 32 -8 34 -31 8 -89 -13 -29 -29 -68 -36 -85 -15 -38 -26 -36 -35 8
-7 37 -17 35 -48 -11 -26 -39 -58 -52 -58 -24 0 9 12 37 26 62 24 41 25 46 10
57 -24 18 -20 30 19 50 18 11 41 33 49 50 18 36 73 183 91 243 l13 43 -44 28
c-24 16 -64 34 -89 41 -29 8 -45 18 -46 29 0 10 -2 11 -6 4 -6 -17 -29 -16
-57 2 -13 9 -47 18 -75 22 -45 5 -51 4 -45 -11 4 -11 1 -16 -12 -16 -18 -1
-18 -1 -1 -11 21 -13 22 -27 0 -51 -23 -25 -4 -45 27 -28 27 14 50 6 50 -18 0
-22 -56 -66 -75 -58 -19 7 -34 -14 -37 -53 -3 -37 -20 -55 -45 -47 -10 3 -25
1 -33 -5 -12 -9 -12 -10 3 -5 10 3 33 -2 50 -11 l32 -16 -23 -15 c-21 -14 -22
-16 -6 -33 10 -11 30 -19 45 -19 16 0 33 -8 39 -17 10 -16 11 -16 4 2 -4 11
-7 31 -8 45 -1 24 1 25 49 22 46 -2 49 -1 31 13 -11 8 -23 15 -28 15 -4 0 -8
5 -8 10 0 6 9 10 20 10 12 0 20 7 20 17 0 14 2 14 20 -2 11 -10 30 -23 43 -29
30 -15 36 -56 8 -56 -11 0 -23 -4 -26 -10 -3 -5 -17 -10 -30 -10 -13 0 -27 -5
-31 -11 -3 -6 -35 -24 -70 -39 -76 -34 -89 -61 -54 -110 12 -16 18 -35 15 -41
-4 -6 -1 -9 6 -8 8 1 34 -7 58 -19 38 -17 49 -29 72 -81 21 -46 33 -61 48 -61
12 0 21 -4 21 -9 0 -5 10 -7 22 -3 17 4 20 2 15 -12 -4 -10 -7 -21 -7 -24 0
-4 -5 0 -11 8 -8 12 -9 11 -4 -6 3 -13 -4 -34 -20 -58 -14 -20 -25 -39 -25
-42 0 -7 -111 -194 -115 -194 -2 0 -24 28 -49 62 l-46 62 75 21 c42 12 79 26
83 30 4 5 -2 5 -13 1 -11 -4 -48 -15 -83 -24 l-63 -17 -20 25 c-24 32 -129
239 -129 256 0 7 18 18 41 24 23 6 39 14 36 17 -4 3 -20 0 -38 -6 -18 -6 -35
-11 -40 -11 -18 0 -86 278 -71 291 4 3 27 11 50 18 24 7 42 14 40 16 -2 2 -24
-2 -50 -9 l-45 -14 -7 60 c-12 115 -13 112 50 132 31 10 54 20 51 22 -2 2 -24
-3 -48 -12 -24 -8 -71 -22 -104 -30 -55 -13 -56 -14 -14 -9 l46 4 8 -80 c3
-45 4 -84 0 -87 -3 -3 -36 -12 -73 -19 l-67 -13 57 5 c31 3 63 8 72 11 10 4
17 -1 20 -18 2 -12 16 -72 31 -133 14 -60 27 -117 28 -125 2 -12 -16 -17 -74
-24 -42 -5 -92 -6 -112 -2 -31 6 -36 11 -40 39 l-4 32 -1 -33 c-2 -34 -2 -34
-42 -27 -36 6 -40 5 -40 -14 0 -16 -6 -21 -24 -21 -29 0 -42 16 -28 33 6 7 12
28 14 47 3 34 4 35 41 32 l38 -3 -2 58 c-1 71 9 120 30 145 15 17 16 17 23 1
5 -15 7 -14 7 5 1 12 5 22 11 22 5 0 7 7 4 15 -4 8 -11 12 -16 9 -13 -8 -28
15 -28 44 0 14 -8 26 -22 31 -18 7 -31 2 -65 -25 -23 -19 -51 -34 -63 -34 -21
0 -21 1 7 51 15 28 48 69 73 92 25 22 39 37 33 33 -30 -17 -10 13 31 47 42 34
86 51 71 26 -4 -6 2 -5 14 3 l21 13 -22 6 c-19 4 -10 12 54 43 80 40 115 45
82 11 -18 -18 -18 -19 -1 -12 10 4 24 7 30 7 8 0 8 3 -1 8 -25 16 22 41 99 52
77 11 227 3 179 -10 -17 -4 -7 -7 30 -7 30 0 66 -5 80 -10 14 -6 28 -11 33
-12 19 -2 108 -53 150 -85 26 -20 47 -32 47 -26 0 5 -12 18 -27 27 l-27 18 34
5 c18 3 35 11 38 18 3 9 -13 12 -56 12 -42 0 -75 7 -113 25 -90 41 -176 58
-284 58 -108 0 -194 -17 -284 -58 -47 -22 -68 -25 -167 -25 l-114 0 0 -109 c0
-102 -2 -112 -34 -182 -86 -186 -86 -388 -1 -567 l35 -74 0 -724 0 -724 635 0
635 0 2 441 3 441 90 -60 c132 -88 233 -178 315 -281 61 -77 77 -91 101 -91
16 0 29 5 29 11 0 6 20 -7 44 -29 39 -36 112 -69 125 -57 2 3 -17 31 -43 62
-96 118 -255 381 -336 558 -137 296 -275 721 -316 970 -20 125 -14 491 10 595
18 76 20 126 6 135 -16 10 -65 -22 -78 -50 -7 -14 -17 -80 -24 -145 -10 -101
-14 -120 -28 -120 -14 0 -18 15 -23 103 -13 228 -60 324 -144 290z m191 -580
c3 -87 8 -171 11 -188 4 -24 3 -26 -4 -10 -13 28 -12 2 3 -68 6 -32 14 -56 17
-53 6 6 -8 -166 -17 -208 -3 -17 -16 -49 -27 -71 -12 -22 -20 -46 -18 -53 1
-7 -15 -40 -35 -73 -27 -46 -39 -58 -46 -47 -8 10 -9 10 -6 -2 3 -8 1 -19 -4
-25 -4 -5 -19 -25 -34 -42 -35 -44 -153 -126 -221 -154 -48 -19 -58 -20 -77
-9 -19 12 -20 12 -7 -3 7 -10 9 -17 3 -17 -5 0 -24 -3 -42 -6 l-32 -7 16 32
c9 17 21 31 26 31 6 0 10 7 10 15 0 9 6 12 18 9 12 -4 13 -3 4 3 -10 8 0 35
46 121 32 62 62 109 65 105 4 -3 7 3 7 14 0 23 64 158 80 168 6 4 10 -5 10
-22 0 -17 -10 -36 -27 -51 l-28 -23 32 17 c43 24 58 11 40 -35 -11 -29 -10
-34 8 -49 18 -15 20 -23 13 -56 -5 -22 -7 -44 -5 -50 2 -6 9 23 16 64 7 41 16
91 21 110 5 19 6 47 3 62 -4 21 3 39 30 75 34 47 97 165 97 180 0 4 -17 -24
-38 -62 -20 -39 -48 -85 -61 -104 -28 -38 -35 -32 -45 40 -6 40 -1 62 29 141
32 83 41 97 71 111 37 18 42 33 19 63 -16 22 -19 52 -6 73 7 11 15 3 32 -30
12 -24 26 -60 29 -79 6 -28 8 -31 15 -17 5 12 -4 41 -27 90 -35 71 -35 73 -26
147 13 97 14 100 36 100 17 0 19 -12 26 -157z m64 -1121 c9 -3 12 62 13 300
l0 303 68 -195 c105 -301 164 -442 270 -639 33 -63 61 -117 61 -119 0 -2 -35
29 -77 68 -179 167 -336 238 -563 255 -108 9 -190 -9 -318 -70 -210 -100 -389
-261 -531 -480 l-52 -80 28 -7 c15 -4 33 -15 40 -24 9 -13 18 -4 53 58 87 151
144 229 224 306 142 137 271 209 414 234 85 14 179 -2 285 -51 l67 -30 0 -435
0 -436 -605 0 -605 0 0 685 0 685 63 -63 c108 -108 252 -178 399 -193 l67 -7
-55 -80 c-62 -90 -65 -113 -15 -110 43 2 62 21 122 119 47 79 50 82 94 88 59
9 155 49 224 93 174 111 291 322 303 546 2 23 5 -129 8 -337 4 -291 8 -380 18
-384z m-823 552 c25 -53 58 -118 75 -145 16 -27 30 -51 30 -53 0 -2 -14 -6
-31 -10 -22 -4 -38 -1 -55 13 -14 11 -39 23 -57 27 -70 15 -122 50 -150 102
-15 27 -27 57 -27 66 0 8 -13 29 -30 46 -16 17 -30 32 -30 34 0 2 26 2 58 -1
44 -3 150 6 169 16 2 0 23 -42 48 -95z m-485 76 c28 -15 43 -78 26 -105 -9
-14 -11 -27 -5 -36 5 -8 9 -10 9 -5 0 5 11 -1 25 -14 13 -12 22 -26 20 -31 -3
-4 8 -18 24 -32 17 -14 28 -27 25 -29 -2 -3 6 -13 18 -24 l23 -19 -19 23 c-28
32 -3 27 37 -8 19 -16 46 -30 59 -30 13 0 29 -5 34 -10 16 -16 117 -30 131
-18 15 12 82 15 106 4 13 -6 17 -4 17 12 0 11 7 23 16 26 40 15 60 4 107 -60
l47 -65 -17 -30 c-10 -16 -24 -29 -33 -29 -11 0 -11 -3 -3 -8 19 -12 -2 -36
-23 -28 -15 6 -17 5 -6 -5 22 -23 13 -30 -37 -27 -27 2 -47 7 -44 12 3 4 -4 5
-15 2 -25 -8 -104 10 -152 35 -19 10 -51 25 -70 33 -113 51 -270 232 -295 341
-2 11 -11 38 -19 60 -16 41 -20 75 -10 75 3 0 14 -5 24 -10z"/>
<path d="M1120 720 l0 -110 45 0 45 0 0 110 0 110 -45 0 -45 0 0 -110z"/>
<path d="M1260 720 l0 -110 45 0 c45 0 45 0 45 35 l0 35 51 0 c79 0 109 21
109 78 0 59 -25 72 -145 72 l-105 0 0 -110z"/>
<path d="M1593 811 c-111 -52 -73 -173 62 -201 76 -16 180 -2 225 30 26 18 60
66 60 85 0 3 -49 5 -110 5 l-110 0 0 -25 c0 -23 4 -25 41 -25 22 0 38 -4 35
-9 -10 -15 -62 -20 -99 -10 -66 18 -86 60 -47 99 28 28 112 27 164 0 32 -18
43 -19 72 -10 41 14 40 28 -7 55 -51 30 -227 34 -286 6z"/>
<path d="M1980 720 l0 -110 45 0 c45 0 45 0 45 35 l0 35 55 0 c46 0 60 4 80
25 34 33 33 77 -1 104 -23 18 -41 21 -125 21 l-99 0 0 -110z"/>
<path d="M3520 1765 l0 -1555 25 0 25 0 0 1555 0 1555 -25 0 -25 0 0 -1555z"/>
<path d="M5360 3108 c-1 -145 -21 -507 -35 -613 -51 -394 -196 -723 -435 -987
l-60 -66 10 -54 c19 -97 15 -95 84 -30 119 111 250 165 401 164 198 0 308 -72
460 -300 l68 -102 -24 -27 c-44 -47 -165 -119 -250 -148 -74 -25 -99 -28 -204
-28 -200 -1 -318 45 -429 164 -99 107 -152 238 -176 429 -6 48 -10 305 -10
597 l0 513 50 0 c43 0 50 3 50 20 0 20 -7 20 -385 20 -378 0 -385 0 -385 -20
0 -18 7 -20 55 -20 l55 0 0 -402 c0 -233 5 -441 11 -493 32 -257 117 -442 279
-606 192 -194 425 -284 770 -296 184 -6 278 6 397 54 67 27 198 107 222 136 7
9 17 17 20 17 4 0 27 -36 52 -80 l44 -80 92 0 c58 0 93 4 93 10 0 15 -292 441
-358 523 -58 71 -143 141 -214 175 -145 70 -364 70 -500 1 l-38 -19 57 82
c137 201 249 508 292 803 l17 120 13 -105 c31 -257 101 -503 201 -705 58 -116
100 -181 430 -660 l155 -225 122 0 c68 0 123 3 123 8 0 4 -29 44 -65 89 -427
542 -606 830 -709 1143 -83 252 -136 621 -136 941 l0 109 -105 0 -105 0 0 -52z"/>
<path d="M1581 2914 c-1 -26 -56 -87 -73 -82 -12 4 -23 21 -32 51 -4 14 -17
17 -65 17 -57 0 -131 -23 -131 -41 0 -12 42 -39 60 -39 8 0 28 -7 43 -15 15
-8 34 -12 41 -9 8 3 36 -20 66 -53 42 -46 46 -49 16 -11 -20 25 -36 50 -36 55
0 13 61 44 73 36 7 -3 9 -3 5 2 -4 4 4 22 18 41 14 18 24 41 21 51 -4 15 -5
14 -6 -3z"/>
<path d="M6020 2640 c0 -18 7 -20 54 -20 l54 0 4 -432 c5 -454 -1 -572 -32
-664 l-19 -55 36 -50 c21 -27 40 -49 44 -49 9 0 65 127 79 181 35 128 41 209
47 637 l6 432 53 0 c47 0 54 2 54 20 0 19 -7 20 -190 20 -183 0 -190 -1 -190
-20z"/>
<path d="M4150 506 c0 -90 1 -96 26 -115 41 -32 121 -25 146 13 4 6 8 53 8
104 0 85 -1 92 -20 92 -18 0 -20 -7 -20 -83 0 -91 -8 -107 -52 -107 -38 0 -48
24 -48 114 0 69 -2 76 -20 76 -19 0 -20 -7 -20 -94z"/>
<path d="M5630 565 c0 -26 -3 -33 -15 -29 -21 8 -60 -3 -79 -22 -10 -9 -16
-33 -16 -60 0 -63 23 -83 95 -83 l55 1 0 114 c0 107 -1 114 -20 114 -16 0 -20
-7 -20 -35z"/>
<path d="M5910 485 c0 -108 1 -115 20 -115 17 0 20 7 20 45 l0 45 38 0 c43 0
55 6 71 37 17 33 14 51 -14 78 -20 21 -34 25 -80 25 l-55 0 0 -115z"/>
<path d="M4370 532 c-6 -2 -10 -39 -10 -83 0 -72 2 -79 20 -79 18 0 20 7 20
60 0 54 3 62 23 69 35 14 47 -5 47 -70 0 -52 2 -59 20 -59 18 0 20 7 20 69 0
87 -11 101 -80 98 -28 -1 -54 -3 -60 -5z"/>
<path d="M4775 528 c-29 -17 -35 -28 -35 -75 0 -63 38 -91 106 -78 25 4 34 11
34 25 0 23 -4 24 -32 9 -25 -14 -68 3 -68 26 0 11 12 15 50 15 49 0 50 1 50
29 0 50 -57 76 -105 49z"/>
<path d="M5336 519 c-21 -16 -26 -29 -26 -64 0 -65 38 -93 106 -80 25 4 34 11
34 25 0 23 -4 24 -32 9 -25 -14 -68 3 -68 26 0 11 12 15 50 15 49 0 50 1 50
29 0 56 -65 79 -114 40z"/>
<path d="M5716 517 c-53 -53 -18 -147 54 -147 39 0 70 16 70 35 0 18 1 18 -39
4 -27 -9 -35 -8 -51 6 -31 28 -24 35 35 35 51 0 55 2 55 23 0 35 -21 57 -62
63 -30 5 -41 2 -62 -19z"/>
<path d="M6098 533 c-10 -2 -18 -13 -18 -23 0 -17 4 -18 26 -10 14 6 30 7 35
4 17 -10 4 -27 -32 -39 -26 -9 -35 -18 -37 -39 -5 -44 12 -56 81 -53 50 2 62
5 65 20 2 10 -2 16 -10 15 -9 -2 -14 14 -16 57 -2 33 -9 63 -15 67 -13 8 -51
9 -79 1z"/>
</g>
</svg>
